<svg width="660" height="560" viewBox="0 0 660 560" fill="none" xmlns="http://www.w3.org/2000/svg">
<rect width="660" height="560" fill="#111111"/>
<circle cx="338" cy="280" r="55" stroke="#444444"/>
<circle opacity="0.6" cx="338" cy="280" r="80" stroke="#444444"/>
<circle opacity="0.6" cx="338" cy="280" r="105" stroke="#444444"/>
<circle opacity="0.6" cx="338" cy="280" r="130" stroke="#444444"/>
<circle opacity="0.6" cx="338" cy="280" r="155" stroke="#444444"/>
<circle opacity="0.6" cx="338" cy="280" r="180" stroke="#444444"/>
<circle opacity="0.6" cx="338" cy="280" r="205" stroke="#444444"/>
<circle opacity="0.6" cx="338" cy="280" r="230" stroke="#444444"/>
<circle opacity="0.6" cx="338" cy="280" r="255" stroke="#444444"/>
<path d="M338 335C307.624 335 283 310.376 283 280C283 249.624 307.624 225 338 225" stroke="white" stroke-width="2" stroke-linecap="round"/>
<path d="M337 385C394.99 385 442 337.99 442 280C442 222.01 394.99 175 337 175" stroke="white" stroke-width="2" stroke-linecap="round"/>
<path d="M518 280C518 180.589 437.411 100 338 100C238.589 100 158 180.589 158 280" stroke="white" stroke-width="2" stroke-linecap="round"/>
<path d="M83 276C83 137.377 199.854 25 344 25" stroke="white" stroke-width="2" stroke-linecap="round"/>
<path d="M568 279C568 406.578 464.578 510 337 510" stroke="white" stroke-width="2" stroke-linecap="round"/>
<path d="M354.46 65.344V76H358.428C361.052 76 361.964 74.656 361.964 73.136V68.208C361.964 66.672 361.052 65.344 358.428 65.344H354.46ZM356.476 67.12H358.22C359.58 67.12 359.948 67.664 359.948 68.688V72.656C359.948 73.68 359.58 74.224 358.22 74.224H356.476V67.12ZM365.733 65.344H363.717V76H365.733V65.344ZM369.511 68.672C369.511 67.584 369.975 67.008 371.383 67.008C372.423 67.008 373.399 67.088 374.375 67.296L374.599 65.536C373.639 65.28 372.407 65.184 371.543 65.184C368.775 65.184 367.495 66.208 367.495 68.4V72.944C367.495 75.056 368.743 76.16 371.351 76.16C372.471 76.16 373.799 76 374.919 75.68V70.992H373.015V74.224C372.471 74.304 371.911 74.352 371.367 74.352C369.959 74.352 369.511 73.744 369.511 72.704V68.672ZM378.694 65.344H376.678V76H378.694V65.344ZM382.873 76H384.889V67.12H387.865V65.344H379.897V67.12H382.873V76ZM394.622 76H396.734L393.374 65.344H390.558L387.198 76H389.31L389.982 73.792H393.934L394.622 76ZM391.966 67.008L393.422 72.048H390.478L391.966 67.008ZM399.878 65.344H397.862V76H404.262V74.224H399.878V65.344ZM363.05 89.104C363.05 86.976 362.906 86.512 360.042 85.824C358.202 85.376 358.17 85.344 358.17 84.128C358.17 83.2 358.41 82.912 359.77 82.912C360.698 82.912 361.738 83.04 362.618 83.232L362.842 81.536C361.786 81.296 360.666 81.184 359.738 81.184C357.034 81.184 356.154 82.144 356.154 84.08C356.154 86.336 356.506 86.832 359.082 87.408C361.002 87.824 361.034 87.92 361.034 89.104C361.034 90.128 360.794 90.432 359.338 90.432C358.282 90.432 357.322 90.24 356.33 89.936L355.978 91.52C356.682 91.856 358.09 92.16 359.306 92.16C362.458 92.16 363.05 91.12 363.05 89.104ZM372.395 84.464C372.395 82.688 371.371 81.184 368.363 81.184C365.355 81.184 364.331 82.688 364.331 84.464V88.88C364.331 90.656 365.355 92.16 368.363 92.16C371.371 92.16 372.395 90.656 372.395 88.88V84.464ZM366.347 84.576C366.347 83.568 366.859 82.96 368.363 82.96C369.867 82.96 370.379 83.568 370.379 84.576V88.768C370.379 89.776 369.867 90.384 368.363 90.384C366.859 90.384 366.347 89.776 366.347 88.768V84.576ZM379.851 81.344V88.752C379.851 89.792 379.355 90.384 377.931 90.384C376.507 90.384 376.011 89.792 376.011 88.752V81.344H373.995V88.912C373.995 90.592 374.939 92.16 377.931 92.16C380.923 92.16 381.867 90.592 381.867 88.912V81.344H379.851ZM389.72 92H392.408V81.344H390.44V89.44L386.392 81.344H383.704V92H385.672V83.92L389.72 92ZM394.334 81.344V92H398.302C400.926 92 401.838 90.656 401.838 89.136V84.208C401.838 82.672 400.926 81.344 398.302 81.344H394.334ZM396.35 83.12H398.094C399.454 83.12 399.822 83.664 399.822 84.688V88.656C399.822 89.68 399.454 90.224 398.094 90.224H396.35V83.12Z" fill="#999999"/>
<mask id="path-17-inside-1_2094_120320" fill="white">
<ellipse cx="378.999" cy="54" rx="4.99924" ry="5"/>
</mask>
<ellipse cx="378.999" cy="54" rx="4.99924" ry="5" fill="white"/>
<path d="M377.998 54C377.998 53.4486 378.446 53 378.999 53V65C385.075 65 389.998 60.0743 389.998 54H377.998ZM378.999 53C379.553 53 380 53.4486 380 54H368C368 60.0743 372.924 65 378.999 65V53ZM380 54C380 54.5514 379.553 55 378.999 55V43C372.924 43 368 47.9257 368 54H380ZM378.999 55C378.446 55 377.998 54.5514 377.998 54H389.998C389.998 47.9257 385.075 43 378.999 43V55Z" fill="white" mask="url(#path-17-inside-1_2094_120320)"/>
<path d="M301.437 267.072C301.437 269.024 302.573 270.16 305.229 270.16C306.221 270.16 307.245 270.032 308.125 269.808L307.901 268.064C307.037 268.224 306.029 268.336 305.293 268.336C303.901 268.336 303.453 267.856 303.453 266.72V262.624C303.453 261.488 303.901 261.008 305.293 261.008C306.029 261.008 307.037 261.12 307.901 261.28L308.125 259.536C307.245 259.312 306.221 259.184 305.229 259.184C302.573 259.184 301.437 260.32 301.437 262.272V267.072ZM317.641 262.464C317.641 260.688 316.617 259.184 313.609 259.184C310.601 259.184 309.577 260.688 309.577 262.464V266.88C309.577 268.656 310.601 270.16 313.609 270.16C316.617 270.16 317.641 268.656 317.641 266.88V262.464ZM311.593 262.576C311.593 261.568 312.105 260.96 313.609 260.96C315.113 260.96 315.625 261.568 315.625 262.576V266.768C315.625 267.776 315.113 268.384 313.609 268.384C312.105 268.384 311.593 267.776 311.593 266.768V262.576ZM325.818 270H328.506V259.344H326.538V267.44L322.49 259.344H319.802V270H321.77V261.92L325.818 270ZM333.087 270H335.103V261.12H338.079V259.344H330.111V261.12H333.087V270ZM339.677 270H346.205V268.224H341.693V265.472H345.853V263.696H341.693V261.12H346.205V259.344H339.677V270ZM354.302 270H356.99V259.344H355.022V267.44L350.974 259.344H348.286V270H350.254V261.92L354.302 270ZM361.571 270H363.587V261.12H366.563V259.344H358.595V261.12H361.571V270ZM374.723 267.104C374.723 264.976 374.579 264.512 371.715 263.824C369.875 263.376 369.843 263.344 369.843 262.128C369.843 261.2 370.083 260.912 371.443 260.912C372.371 260.912 373.411 261.04 374.291 261.232L374.515 259.536C373.459 259.296 372.339 259.184 371.411 259.184C368.707 259.184 367.827 260.144 367.827 262.08C367.827 264.336 368.179 264.832 370.755 265.408C372.675 265.824 372.707 265.92 372.707 267.104C372.707 268.128 372.467 268.432 371.011 268.432C369.955 268.432 368.995 268.24 368.003 267.936L367.651 269.52C368.355 269.856 369.763 270.16 370.979 270.16C374.131 270.16 374.723 269.12 374.723 267.104ZM325.393 281.104L325.569 288H327.633L327.153 277.344H324.897L322.145 284.912L319.393 277.344H317.137L316.657 288H318.721L318.897 281.104L320.865 286.624H323.425L325.393 281.104ZM335.656 277.344V284.752C335.656 285.792 335.16 286.384 333.736 286.384C332.312 286.384 331.816 285.792 331.816 284.752V277.344H329.8V284.912C329.8 286.592 330.744 288.16 333.736 288.16C336.728 288.16 337.672 286.592 337.672 284.912V277.344H335.656ZM346.629 285.104C346.629 282.976 346.485 282.512 343.621 281.824C341.781 281.376 341.749 281.344 341.749 280.128C341.749 279.2 341.989 278.912 343.349 278.912C344.277 278.912 345.317 279.04 346.197 279.232L346.421 277.536C345.365 277.296 344.245 277.184 343.317 277.184C340.613 277.184 339.733 278.144 339.733 280.08C339.733 282.336 340.085 282.832 342.661 283.408C344.581 283.824 344.613 283.92 344.613 285.104C344.613 286.128 344.373 286.432 342.917 286.432C341.861 286.432 340.901 286.24 339.909 285.936L339.557 287.52C340.261 287.856 341.669 288.16 342.885 288.16C346.037 288.16 346.629 287.12 346.629 285.104ZM350.726 277.344H348.71V288H350.726V277.344ZM352.968 285.072C352.968 287.024 354.104 288.16 356.76 288.16C357.752 288.16 358.776 288.032 359.656 287.808L359.432 286.064C358.568 286.224 357.56 286.336 356.824 286.336C355.432 286.336 354.984 285.856 354.984 284.72V280.624C354.984 279.488 355.432 279.008 356.824 279.008C357.56 279.008 358.568 279.12 359.432 279.28L359.656 277.536C358.776 277.312 357.752 277.184 356.76 277.184C354.104 277.184 352.968 278.32 352.968 280.272V285.072ZM320.355 306H322.467L319.107 295.344H316.291L312.931 306H315.043L315.715 303.792H319.667L320.355 306ZM317.699 297.008L319.155 302.048H316.211L317.699 297.008ZM332.875 306L330.235 302.192C331.355 301.792 331.835 300.896 331.835 299.616V298.224C331.835 296.352 330.923 295.344 328.443 295.344H324.075V306H326.091V302.48H328.011L330.459 306H332.875ZM329.819 298.384V299.44C329.819 300.336 329.467 300.736 328.363 300.736H326.091V297.12H328.363C329.435 297.12 329.819 297.488 329.819 298.384ZM336.095 306H338.111V297.12H341.087V295.344H333.119V297.12H336.095V306ZM344.78 295.344H342.764V306H344.78V295.344ZM353.903 303.104C353.903 300.976 353.759 300.512 350.895 299.824C349.055 299.376 349.023 299.344 349.023 298.128C349.023 297.2 349.263 296.912 350.623 296.912C351.551 296.912 352.591 297.04 353.471 297.232L353.695 295.536C352.639 295.296 351.519 295.184 350.591 295.184C347.887 295.184 347.007 296.144 347.007 298.08C347.007 300.336 347.359 300.832 349.935 301.408C351.855 301.824 351.887 301.92 351.887 303.104C351.887 304.128 351.647 304.432 350.191 304.432C349.135 304.432 348.174 304.24 347.183 303.936L346.831 305.52C347.535 305.856 348.943 306.16 350.159 306.16C353.311 306.16 353.903 305.12 353.903 303.104ZM358.079 306H360.095V297.12H363.071V295.344H355.103V297.12H358.079V306Z" fill="white"/>
<path d="M512.354 171.072C512.354 173.024 513.49 174.16 516.146 174.16C517.138 174.16 518.162 174.032 519.042 173.808L518.818 172.064C517.954 172.224 516.946 172.336 516.21 172.336C514.818 172.336 514.37 171.856 514.37 170.72V166.624C514.37 165.488 514.818 165.008 516.21 165.008C516.946 165.008 517.954 165.12 518.818 165.28L519.042 163.536C518.162 163.312 517.138 163.184 516.146 163.184C513.49 163.184 512.354 164.32 512.354 166.272V171.072ZM528.473 174V163.344H526.457V167.728H522.505V163.344H520.489V174H522.505V169.504H526.457V174H528.473ZM537.024 174H539.136L535.776 163.344H532.96L529.6 174H531.712L532.384 171.792H536.336L537.024 174ZM534.368 165.008L535.824 170.048H532.88L534.368 165.008ZM549.064 174L546.424 170.192C547.544 169.792 548.024 168.896 548.024 167.616V166.224C548.024 164.352 547.112 163.344 544.632 163.344H540.264V174H542.28V170.48H544.2L546.648 174H549.064ZM546.008 166.384V167.44C546.008 168.336 545.656 168.736 544.552 168.736H542.28V165.12H544.552C545.624 165.12 546.008 165.488 546.008 166.384ZM556.97 174H559.082L555.722 163.344H552.906L549.546 174H551.658L552.33 171.792H556.282L556.97 174ZM554.314 165.008L555.77 170.048H552.826L554.314 165.008ZM559.689 171.072C559.689 173.024 560.825 174.16 563.481 174.16C564.473 174.16 565.497 174.032 566.377 173.808L566.153 172.064C565.289 172.224 564.281 172.336 563.545 172.336C562.153 172.336 561.705 171.856 561.705 170.72V166.624C561.705 165.488 562.153 165.008 563.545 165.008C564.281 165.008 565.289 165.12 566.153 165.28L566.377 163.536C565.497 163.312 564.473 163.184 563.481 163.184C560.825 163.184 559.689 164.32 559.689 166.272V171.072ZM570 174H572.016V165.12H574.992V163.344H567.024V165.12H570V174ZM576.109 174H582.637V172.224H578.125V169.472H582.285V167.696H578.125V165.12H582.637V163.344H576.109V174ZM593.039 174L590.399 170.192C591.519 169.792 591.999 168.896 591.999 167.616V166.224C591.999 164.352 591.087 163.344 588.607 163.344H584.239V174H586.255V170.48H588.175L590.623 174H593.039ZM589.983 166.384V167.44C589.983 168.336 589.631 168.736 588.527 168.736H586.255V165.12H588.527C589.599 165.12 589.983 165.488 589.983 166.384ZM600.805 171.104C600.805 168.976 600.661 168.512 597.797 167.824C595.957 167.376 595.925 167.344 595.925 166.128C595.925 165.2 596.165 164.912 597.525 164.912C598.453 164.912 599.493 165.04 600.373 165.232L600.597 163.536C599.541 163.296 598.421 163.184 597.493 163.184C594.789 163.184 593.909 164.144 593.909 166.08C593.909 168.336 594.261 168.832 596.837 169.408C598.757 169.824 598.789 169.92 598.789 171.104C598.789 172.128 598.549 172.432 597.093 172.432C596.037 172.432 595.077 172.24 594.085 171.936L593.733 173.52C594.437 173.856 595.845 174.16 597.061 174.16C600.213 174.16 600.805 173.12 600.805 171.104Z" fill="#999999"/>
<mask id="path-21-inside-2_2094_120320" fill="white">
<ellipse cx="555.999" cy="151" rx="4.99924" ry="5"/>
</mask>
<ellipse cx="555.999" cy="151" rx="4.99924" ry="5" fill="white"/>
<path d="M554.998 151C554.998 150.449 555.446 150 555.999 150V162C562.075 162 566.998 157.074 566.998 151H554.998ZM555.999 150C556.553 150 557 150.449 557 151H545C545 157.074 549.924 162 555.999 162V150ZM557 151C557 151.551 556.553 152 555.999 152V140C549.924 140 545 144.926 545 151H557ZM555.999 152C555.446 152 554.998 151.551 554.998 151H566.998C566.998 144.926 562.075 140 555.999 140V152Z" fill="white" mask="url(#path-21-inside-2_2094_120320)"/>
<path d="M389.454 515.672C389.454 514.584 389.918 514.008 391.326 514.008C392.366 514.008 393.342 514.088 394.318 514.296L394.542 512.536C393.582 512.28 392.35 512.184 391.486 512.184C388.718 512.184 387.438 513.208 387.438 515.4V519.944C387.438 522.056 388.686 523.16 391.294 523.16C392.414 523.16 393.742 523 394.862 522.68V517.992H392.958V521.224C392.414 521.304 391.854 521.352 391.31 521.352C389.902 521.352 389.454 520.744 389.454 519.704V515.672ZM403.291 523H405.403L402.043 512.344H399.227L395.867 523H397.979L398.651 520.792H402.603L403.291 523ZM400.635 514.008L402.091 519.048H399.147L400.635 514.008ZM415.106 516.104L415.282 523H417.346L416.866 512.344H414.61L411.858 519.912L409.106 512.344H406.85L406.37 523H408.434L408.61 516.104L410.578 521.624H413.138L415.106 516.104ZM419.113 523H425.641V521.224H421.129V518.472H425.289V516.696H421.129V514.12H425.641V512.344H419.113V523Z" fill="#999999"/>
<mask id="path-24-inside-3_2094_120320" fill="white">
<ellipse cx="405.999" cy="500" rx="4.99924" ry="5"/>
</mask>
<ellipse cx="405.999" cy="500" rx="4.99924" ry="5" fill="white"/>
<path d="M404.998 500C404.998 499.449 405.446 499 405.999 499V511C412.075 511 416.998 506.074 416.998 500H404.998ZM405.999 499C406.553 499 407 499.449 407 500H395C395 506.074 399.924 511 405.999 511V499ZM407 500C407 500.551 406.553 501 405.999 501V489C399.924 489 395 493.926 395 500H407ZM405.999 501C405.446 501 404.998 500.551 404.998 500H416.998C416.998 493.926 412.075 489 405.999 489V501Z" fill="white" mask="url(#path-24-inside-3_2094_120320)"/>
<path d="M232.986 492.072C232.986 494.024 234.122 495.16 236.778 495.16C237.77 495.16 238.794 495.032 239.674 494.808L239.45 493.064C238.586 493.224 237.578 493.336 236.842 493.336C235.45 493.336 235.002 492.856 235.002 491.72V487.624C235.002 486.488 235.45 486.008 236.842 486.008C237.578 486.008 238.586 486.12 239.45 486.28L239.674 484.536C238.794 484.312 237.77 484.184 236.778 484.184C234.122 484.184 232.986 485.32 232.986 487.272V492.072ZM248.711 487.464C248.711 485.688 247.687 484.184 244.679 484.184C241.671 484.184 240.647 485.688 240.647 487.464V491.88C240.647 493.656 241.671 495.16 244.679 495.16C247.687 495.16 248.711 493.656 248.711 491.88V487.464ZM242.663 487.576C242.663 486.568 243.175 485.96 244.679 485.96C246.183 485.96 246.695 486.568 246.695 487.576V491.768C246.695 492.776 246.183 493.384 244.679 493.384C243.175 493.384 242.663 492.776 242.663 491.768V487.576ZM256.407 495H259.095V484.344H257.127V492.44L253.079 484.344H250.391V495H252.359V486.92L256.407 495ZM260.78 492.072C260.78 494.024 261.916 495.16 264.572 495.16C265.564 495.16 266.588 495.032 267.468 494.808L267.244 493.064C266.38 493.224 265.372 493.336 264.636 493.336C263.244 493.336 262.796 492.856 262.796 491.72V487.624C262.796 486.488 263.244 486.008 264.636 486.008C265.372 486.008 266.38 486.12 267.244 486.28L267.468 484.536C266.588 484.312 265.564 484.184 264.572 484.184C261.916 484.184 260.78 485.32 260.78 487.272V492.072ZM268.915 495H275.443V493.224H270.931V490.472H275.091V488.696H270.931V486.12H275.443V484.344H268.915V495ZM285.845 495L283.205 491.192C284.325 490.792 284.805 489.896 284.805 488.616V487.224C284.805 485.352 283.893 484.344 281.413 484.344H277.045V495H279.061V491.48H280.981L283.429 495H285.845ZM282.789 487.384V488.44C282.789 489.336 282.437 489.736 281.333 489.736H279.061V486.12H281.333C282.405 486.12 282.789 486.488 282.789 487.384ZM288.584 495H290.6V486.12H293.576V484.344H285.608V486.12H288.584V495Z" fill="#999999"/>
<mask id="path-27-inside-4_2094_120320" fill="white">
<ellipse cx="262.999" cy="472" rx="4.99924" ry="5"/>
</mask>
<ellipse cx="262.999" cy="472" rx="4.99924" ry="5" fill="white"/>
<path d="M261.998 472C261.998 471.449 262.446 471 262.999 471V483C269.075 483 273.998 478.074 273.998 472H261.998ZM262.999 471C263.553 471 264 471.449 264 472H252C252 478.074 256.924 483 262.999 483V471ZM264 472C264 472.551 263.553 473 262.999 473V461C256.924 461 252 465.926 252 472H264ZM262.999 473C262.446 473 261.998 472.551 261.998 472H273.998C273.998 465.926 269.075 461 262.999 461V473Z" fill="white" mask="url(#path-27-inside-4_2094_120320)"/>
<path d="M90.305 394.344V405H94.273C96.897 405 97.809 403.656 97.809 402.136V397.208C97.809 395.672 96.897 394.344 94.273 394.344H90.305ZM92.321 396.12H94.065C95.425 396.12 95.793 396.664 95.793 397.688V401.656C95.793 402.68 95.425 403.224 94.065 403.224H92.321V396.12ZM102.925 403.224L100.349 394.344H98.253L101.437 405H104.413L107.597 394.344H105.501L102.925 403.224ZM108.439 394.344V405H112.407C115.031 405 115.943 403.656 115.943 402.136V397.208C115.943 395.672 115.031 394.344 112.407 394.344H108.439ZM110.455 396.12H112.199C113.559 396.12 113.927 396.664 113.927 397.688V401.656C113.927 402.68 113.559 403.224 112.199 403.224H110.455V396.12Z" fill="#999999"/>
<mask id="path-30-inside-5_2094_120320" fill="white">
<ellipse cx="102.999" cy="382" rx="4.99924" ry="5"/>
</mask>
<ellipse cx="102.999" cy="382" rx="4.99924" ry="5" fill="white"/>
<path d="M101.998 382C101.998 381.449 102.446 381 102.999 381V393C109.075 393 113.998 388.074 113.998 382H101.998ZM102.999 381C103.553 381 104 381.449 104 382H92C92 388.074 96.9237 393 102.999 393V381ZM104 382C104 382.551 103.553 383 102.999 383V371C96.9237 371 92 375.926 92 382H104ZM102.999 383C102.446 383 101.998 382.551 101.998 382H113.998C113.998 375.926 109.075 371 102.999 371V383Z" fill="white" mask="url(#path-30-inside-5_2094_120320)"/>
<path d="M262.903 369.104L263.079 376H265.143L264.663 365.344H262.407L259.655 372.912L256.903 365.344H254.647L254.167 376H256.231L256.407 369.104L258.375 374.624H260.935L262.903 369.104ZM266.909 376H273.437V374.224H268.925V371.472H273.085V369.696H268.925V367.12H273.437V365.344H266.909V376ZM283.838 376L281.198 372.192C282.318 371.792 282.798 370.896 282.798 369.616V368.224C282.798 366.352 281.886 365.344 279.406 365.344H275.038V376H277.054V372.48H278.974L281.422 376H283.838ZM280.782 368.384V369.44C280.782 370.336 280.43 370.736 279.326 370.736H277.054V367.12H279.326C280.398 367.12 280.782 367.488 280.782 368.384ZM284.49 373.072C284.49 375.024 285.626 376.16 288.282 376.16C289.274 376.16 290.298 376.032 291.178 375.808L290.954 374.064C290.09 374.224 289.082 374.336 288.346 374.336C286.954 374.336 286.506 373.856 286.506 372.72V368.624C286.506 367.488 286.954 367.008 288.346 367.008C289.082 367.008 290.09 367.12 290.954 367.28L291.178 365.536C290.298 365.312 289.274 365.184 288.282 365.184C285.626 365.184 284.49 366.32 284.49 368.272V373.072ZM300.609 376V365.344H298.593V369.728H294.641V365.344H292.625V376H294.641V371.504H298.593V376H300.609ZM309.16 376H311.272L307.912 365.344H305.096L301.736 376H303.848L304.52 373.792H308.472L309.16 376ZM306.504 367.008L307.96 372.048H305.016L306.504 367.008ZM318.416 376H321.104V365.344H319.136V373.44L315.088 365.344H312.4V376H314.368V367.92L318.416 376ZM323.029 365.344V376H326.997C329.621 376 330.533 374.656 330.533 373.136V368.208C330.533 366.672 329.621 365.344 326.997 365.344H323.029ZM325.045 367.12H326.789C328.149 367.12 328.517 367.664 328.517 368.688V372.656C328.517 373.68 328.149 374.224 326.789 374.224H325.045V367.12ZM334.301 365.344H332.285V376H334.301V365.344ZM342.943 373.104C342.943 370.976 342.799 370.512 339.935 369.824C338.095 369.376 338.063 369.344 338.063 368.128C338.063 367.2 338.303 366.912 339.663 366.912C340.591 366.912 341.631 367.04 342.511 367.232L342.735 365.536C341.679 365.296 340.559 365.184 339.631 365.184C336.927 365.184 336.047 366.144 336.047 368.08C336.047 370.336 336.399 370.832 338.975 371.408C340.895 371.824 340.927 371.92 340.927 373.104C340.927 374.128 340.687 374.432 339.231 374.432C338.175 374.432 337.215 374.24 336.223 373.936L335.871 375.52C336.575 375.856 337.983 376.16 339.199 376.16C342.351 376.16 342.943 375.12 342.943 373.104ZM344.464 376H350.992V374.224H346.48V371.472H350.64V369.696H346.48V367.12H350.992V365.344H344.464V376Z" fill="#999999"/>
<mask id="path-33-inside-6_2094_120320" fill="white">
<ellipse cx="301.999" cy="353" rx="4.99924" ry="5"/>
</mask>
<ellipse cx="301.999" cy="353" rx="4.99924" ry="5" fill="white"/>
<path d="M300.998 353C300.998 352.449 301.446 352 301.999 352V364C308.075 364 312.998 359.074 312.998 353H300.998ZM301.999 352C302.553 352 303 352.449 303 353H291C291 359.074 295.924 364 301.999 364V352ZM303 353C303 353.551 302.553 354 301.999 354V342C295.924 342 291 346.926 291 353H303ZM301.999 354C301.446 354 300.998 353.551 300.998 353H312.998C312.998 346.926 308.075 342 301.999 342V354Z" fill="white" mask="url(#path-33-inside-6_2094_120320)"/>
<path d="M329.147 209H331.259L327.899 198.344H325.083L321.723 209H323.835L324.507 206.792H328.459L329.147 209ZM326.491 200.008L327.947 205.048H325.003L326.491 200.008ZM332.387 198.344V209H336.355C338.979 209 339.891 207.656 339.891 206.136V201.208C339.891 199.672 338.979 198.344 336.355 198.344H332.387ZM334.403 200.12H336.147C337.507 200.12 337.875 200.664 337.875 201.688V205.656C337.875 206.68 337.507 207.224 336.147 207.224H334.403V200.12ZM345.007 207.224L342.431 198.344H340.335L343.519 209H346.495L349.679 198.344H347.583L345.007 207.224ZM350.521 209H357.049V207.224H352.537V204.472H356.697V202.696H352.537V200.12H357.049V198.344H350.521V209ZM367.45 209L364.81 205.192C365.93 204.792 366.41 203.896 366.41 202.616V201.224C366.41 199.352 365.498 198.344 363.018 198.344H358.65V209H360.666V205.48H362.586L365.034 209H367.45ZM364.394 201.384V202.44C364.394 203.336 364.042 203.736 362.938 203.736H360.666V200.12H362.938C364.01 200.12 364.394 200.488 364.394 201.384ZM370.19 209H372.206V200.12H375.182V198.344H367.214V200.12H370.19V209ZM378.395 198.344H376.379V209H378.395V198.344ZM387.037 206.104C387.037 203.976 386.893 203.512 384.029 202.824C382.189 202.376 382.157 202.344 382.157 201.128C382.157 200.2 382.397 199.912 383.757 199.912C384.685 199.912 385.725 200.04 386.605 200.232L386.829 198.536C385.773 198.296 384.653 198.184 383.725 198.184C381.021 198.184 380.141 199.144 380.141 201.08C380.141 203.336 380.493 203.832 383.069 204.408C384.989 204.824 385.021 204.92 385.021 206.104C385.021 207.128 384.781 207.432 383.325 207.432C382.269 207.432 381.309 207.24 380.317 206.936L379.965 208.52C380.669 208.856 382.077 209.16 383.293 209.16C386.445 209.16 387.037 208.12 387.037 206.104ZM388.558 209H395.086V207.224H390.574V204.472H394.734V202.696H390.574V200.12H395.086V198.344H388.558V209ZM405.264 202.104L405.44 209H407.504L407.024 198.344H404.768L402.016 205.912L399.264 198.344H397.008L396.528 209H398.592L398.768 202.104L400.736 207.624H403.296L405.264 202.104ZM409.27 209H415.798V207.224H411.286V204.472H415.446V202.696H411.286V200.12H415.798V198.344H409.27V209ZM423.415 209H426.103V198.344H424.135V206.44L420.087 198.344H417.399V209H419.367V200.92L423.415 209ZM430.205 209H432.221V200.12H435.197V198.344H427.229V200.12H430.205V209ZM442.876 206.104C442.876 203.976 442.732 203.512 439.868 202.824C438.028 202.376 437.996 202.344 437.996 201.128C437.996 200.2 438.236 199.912 439.596 199.912C440.524 199.912 441.564 200.04 442.444 200.232L442.668 198.536C441.612 198.296 440.492 198.184 439.564 198.184C436.86 198.184 435.98 199.144 435.98 201.08C435.98 203.336 436.332 203.832 438.908 204.408C440.828 204.824 440.86 204.92 440.86 206.104C440.86 207.128 440.62 207.432 439.164 207.432C438.108 207.432 437.148 207.24 436.156 206.936L435.804 208.52C436.508 208.856 437.916 209.16 439.132 209.16C442.284 209.16 442.876 208.12 442.876 206.104Z" fill="#999999"/>
<mask id="path-36-inside-7_2094_120320" fill="white">
<ellipse cx="381.999" cy="186" rx="4.99924" ry="5"/>
</mask>
<ellipse cx="381.999" cy="186" rx="4.99924" ry="5" fill="white"/>
<path d="M380.998 186C380.998 185.449 381.446 185 381.999 185V197C388.075 197 392.998 192.074 392.998 186H380.998ZM381.999 185C382.553 185 383 185.449 383 186H371C371 192.074 375.924 197 381.999 197V185ZM383 186C383 186.551 382.553 187 381.999 187V175C375.924 175 371 179.926 371 186H383ZM381.999 187C381.446 187 380.998 186.551 380.998 186H392.998C392.998 179.926 388.075 175 381.999 175V187Z" fill="white" mask="url(#path-36-inside-7_2094_120320)"/>
<path d="M202.236 195H208.764V193.224H204.252V190.472H208.412V188.696H204.252V186.12H208.764V184.344H202.236V195ZM214.043 193.224L211.467 184.344H209.371L212.555 195H215.531L218.715 184.344H216.619L214.043 193.224ZM219.557 195H226.085V193.224H221.573V190.472H225.733V188.696H221.573V186.12H226.085V184.344H219.557V195ZM233.703 195H236.391V184.344H234.423V192.44L230.375 184.344H227.687V195H229.655V186.92L233.703 195ZM240.492 195H242.508V186.12H245.484V184.344H237.516V186.12H240.492V195ZM253.163 192.104C253.163 189.976 253.019 189.512 250.155 188.824C248.315 188.376 248.283 188.344 248.283 187.128C248.283 186.2 248.523 185.912 249.883 185.912C250.811 185.912 251.851 186.04 252.731 186.232L252.955 184.536C251.899 184.296 250.779 184.184 249.851 184.184C247.147 184.184 246.267 185.144 246.267 187.08C246.267 189.336 246.619 189.832 249.195 190.408C251.115 190.824 251.147 190.92 251.147 192.104C251.147 193.128 250.907 193.432 249.451 193.432C248.395 193.432 247.435 193.24 246.443 192.936L246.091 194.52C246.795 194.856 248.203 195.16 249.419 195.16C252.571 195.16 253.163 194.12 253.163 192.104Z" fill="#999999"/>
<mask id="path-39-inside-8_2094_120320" fill="white">
<ellipse cx="226.999" cy="172" rx="4.99924" ry="5"/>
</mask>
<ellipse cx="226.999" cy="172" rx="4.99924" ry="5" fill="white"/>
<path d="M225.998 172C225.998 171.449 226.446 171 226.999 171V183C233.075 183 237.998 178.074 237.998 172H225.998ZM226.999 171C227.553 171 228 171.449 228 172H216C216 178.074 220.924 183 226.999 183V171ZM228 172C228 172.551 227.553 173 226.999 173V161C220.924 161 216 165.926 216 172H228ZM226.999 173C226.446 173 225.998 172.551 225.998 172H237.998C237.998 165.926 233.075 161 226.999 161V173Z" fill="white" mask="url(#path-39-inside-8_2094_120320)"/>
<path d="M113.585 202C115.521 202 116.497 201.056 116.497 199.552V198.416C116.497 197.376 115.921 196.656 114.945 196.448C115.761 196.096 116.129 195.6 116.129 194.72V193.616C116.129 192.176 115.313 191.344 113.297 191.344H109.105V202H113.585ZM114.481 199.296C114.481 200.08 114.097 200.336 113.185 200.336H111.121V197.424H113.361C114.161 197.424 114.481 197.776 114.481 198.496V199.296ZM114.113 194.816C114.113 195.44 113.825 195.808 113.041 195.808H111.121V193.008H113.057C113.793 193.008 114.113 193.28 114.113 193.872V194.816ZM126.66 202L124.02 198.192C125.14 197.792 125.62 196.896 125.62 195.616V194.224C125.62 192.352 124.708 191.344 122.228 191.344H117.86V202H119.876V198.48H121.796L124.244 202H126.66ZM123.604 194.384V195.44C123.604 196.336 123.252 196.736 122.148 196.736H119.876V193.12H122.148C123.22 193.12 123.604 193.488 123.604 194.384ZM135.376 194.464C135.376 192.688 134.352 191.184 131.344 191.184C128.336 191.184 127.312 192.688 127.312 194.464V198.88C127.312 200.656 128.336 202.16 131.344 202.16C134.352 202.16 135.376 200.656 135.376 198.88V194.464ZM129.328 194.576C129.328 193.568 129.84 192.96 131.344 192.96C132.848 192.96 133.36 193.568 133.36 194.576V198.768C133.36 199.776 132.848 200.384 131.344 200.384C129.84 200.384 129.328 199.776 129.328 198.768V194.576ZM143.399 202H145.511L142.151 191.344H139.335L135.975 202H138.087L138.759 199.792H142.711L143.399 202ZM140.743 193.008L142.199 198.048H139.255L140.743 193.008ZM146.638 191.344V202H150.606C153.23 202 154.142 200.656 154.142 199.136V194.208C154.142 192.672 153.23 191.344 150.606 191.344H146.638ZM148.654 193.12H150.398C151.758 193.12 152.126 193.664 152.126 194.688V198.656C152.126 199.68 151.758 200.224 150.398 200.224H148.654V193.12ZM103.244 215.072C103.244 217.024 104.38 218.16 107.036 218.16C108.028 218.16 109.052 218.032 109.932 217.808L109.708 216.064C108.844 216.224 107.836 216.336 107.1 216.336C105.708 216.336 105.26 215.856 105.26 214.72V210.624C105.26 209.488 105.708 209.008 107.1 209.008C107.836 209.008 108.844 209.12 109.708 209.28L109.932 207.536C109.052 207.312 108.028 207.184 107.036 207.184C104.38 207.184 103.244 208.32 103.244 210.272V215.072ZM118.159 218H120.271L116.911 207.344H114.095L110.735 218H112.847L113.519 215.792H117.471L118.159 218ZM115.503 209.008L116.959 214.048H114.015L115.503 209.008ZM128.039 215.104C128.039 212.976 127.895 212.512 125.031 211.824C123.191 211.376 123.159 211.344 123.159 210.128C123.159 209.2 123.399 208.912 124.759 208.912C125.687 208.912 126.727 209.04 127.607 209.232L127.831 207.536C126.775 207.296 125.655 207.184 124.727 207.184C122.023 207.184 121.143 208.144 121.143 210.08C121.143 212.336 121.495 212.832 124.071 213.408C125.991 213.824 126.023 213.92 126.023 215.104C126.023 216.128 125.783 216.432 124.327 216.432C123.271 216.432 122.311 216.24 121.319 215.936L120.967 217.52C121.671 217.856 123.079 218.16 124.295 218.16C127.447 218.16 128.039 217.12 128.039 215.104ZM131.735 218H133.751V209.12H136.727V207.344H128.759V209.12H131.735V218ZM139.941 207.344H137.925V218H139.941V207.344ZM147.959 218H150.647V207.344H148.679V215.44L144.631 207.344H141.943V218H143.911V209.92L147.959 218ZM154.348 210.672C154.348 209.584 154.812 209.008 156.22 209.008C157.26 209.008 158.236 209.088 159.212 209.296L159.436 207.536C158.476 207.28 157.244 207.184 156.38 207.184C153.612 207.184 152.332 208.208 152.332 210.4V214.944C152.332 217.056 153.58 218.16 156.188 218.16C157.308 218.16 158.636 218 159.756 217.68V212.992H157.852V216.224C157.308 216.304 156.748 216.352 156.204 216.352C154.796 216.352 154.348 215.744 154.348 214.704V210.672Z" fill="#999999"/>
<mask id="path-42-inside-9_2094_120320" fill="white">
<ellipse cx="130.999" cy="180" rx="4.99924" ry="5"/>
</mask>
<ellipse cx="130.999" cy="180" rx="4.99924" ry="5" fill="white"/>
<path d="M129.998 180C129.998 179.449 130.446 179 130.999 179V191C137.075 191 141.998 186.074 141.998 180H129.998ZM130.999 179C131.553 179 132 179.449 132 180H120C120 186.074 124.924 191 130.999 191V179ZM132 180C132 180.551 131.553 181 130.999 181V169C124.924 169 120 173.926 120 180H132ZM130.999 181C130.446 181 129.998 180.551 129.998 180H141.998C141.998 173.926 137.075 169 130.999 169V181Z" fill="white" mask="url(#path-42-inside-9_2094_120320)"/>
<path d="M497.853 353.104L498.029 360H500.093L499.613 349.344H497.357L494.605 356.912L491.853 349.344H489.597L489.117 360H491.181L491.357 353.104L493.325 358.624H495.885L497.853 353.104ZM507.636 349.344V356.752C507.636 357.792 507.14 358.384 505.716 358.384C504.292 358.384 503.796 357.792 503.796 356.752V349.344H501.78V356.912C501.78 358.592 502.724 360.16 505.716 360.16C508.708 360.16 509.652 358.592 509.652 356.912V349.344H507.636ZM518.129 357.104C518.129 354.976 517.985 354.512 515.121 353.824C513.281 353.376 513.249 353.344 513.249 352.128C513.249 351.2 513.489 350.912 514.849 350.912C515.777 350.912 516.817 351.04 517.697 351.232L517.921 349.536C516.865 349.296 515.745 349.184 514.817 349.184C512.113 349.184 511.233 350.144 511.233 352.08C511.233 354.336 511.585 354.832 514.161 355.408C516.081 355.824 516.113 355.92 516.113 357.104C516.113 358.128 515.873 358.432 514.417 358.432C513.361 358.432 512.401 358.24 511.409 357.936L511.057 359.52C511.761 359.856 513.169 360.16 514.385 360.16C517.537 360.16 518.129 359.12 518.129 357.104ZM521.746 349.344H519.73V360H521.746V349.344ZM523.508 357.072C523.508 359.024 524.644 360.16 527.3 360.16C528.292 360.16 529.316 360.032 530.196 359.808L529.972 358.064C529.108 358.224 528.1 358.336 527.364 358.336C525.972 358.336 525.524 357.856 525.524 356.72V352.624C525.524 351.488 525.972 351.008 527.364 351.008C528.1 351.008 529.108 351.12 529.972 351.28L530.196 349.536C529.316 349.312 528.292 349.184 527.3 349.184C524.644 349.184 523.508 350.32 523.508 352.272V357.072Z" fill="#999999"/>
<mask id="path-45-inside-10_2094_120320" fill="white">
<ellipse cx="508.999" cy="337" rx="4.99924" ry="5"/>
</mask>
<ellipse cx="508.999" cy="337" rx="4.99924" ry="5" fill="white"/>
<path d="M507.998 337C507.998 336.449 508.446 336 508.999 336V348C515.075 348 519.998 343.074 519.998 337H507.998ZM508.999 336C509.553 336 510 336.449 510 337H498C498 343.074 502.924 348 508.999 348V336ZM510 337C510 337.551 509.553 338 508.999 338V326C502.924 326 498 330.926 498 337H510ZM508.999 338C508.446 338 507.998 337.551 507.998 337H519.998C519.998 330.926 515.075 326 508.999 326V338Z" fill="white" mask="url(#path-45-inside-10_2094_120320)"/>
</svg>
