<svg width="660" height="420" viewBox="0 0 660 420" fill="none" xmlns="http://www.w3.org/2000/svg">
<rect width="660" height="420" fill="#111111"/>
<path d="M332.487 306.973C269.581 338.653 204.452 358.175 150.016 364.135C122.798 367.114 98.2712 366.701 78.0404 362.733C57.8039 358.763 41.9133 351.246 31.9046 340.058C21.9129 328.89 18.6879 315.074 21.4418 299.603C24.1991 284.113 32.9526 266.964 46.9267 249.208C74.8726 213.698 123.603 175.877 186.513 144.195C249.419 112.514 314.548 92.9925 368.984 87.0331C396.202 84.0534 420.729 84.4664 440.96 88.4349C461.196 92.4046 477.087 99.922 487.095 111.11C497.087 122.278 500.312 136.093 497.558 151.565C494.801 167.055 486.047 184.204 472.073 201.96C444.127 237.47 395.397 275.291 332.487 306.973Z" stroke="#444444" stroke-linecap="round"/>
<path d="M422.844 305.982C344.101 339.387 263.663 357.813 197.289 360.613C164.101 362.013 134.464 359.505 110.329 353.033C86.1819 346.558 67.6333 336.14 56.4893 321.795C45.3758 307.488 42.6024 290.532 47.1714 272.021C51.7493 253.473 63.7034 233.369 82.0501 212.923C118.739 172.036 180.79 130.009 259.54 96.5994C338.283 63.1936 418.721 44.7681 485.095 41.9678C518.283 40.5676 547.92 43.0755 572.056 49.5479C596.202 56.0233 614.751 66.4409 625.895 80.7863C637.008 95.0926 639.782 112.049 635.213 130.56C630.635 149.108 618.681 169.212 600.334 189.658C563.645 230.545 501.594 272.572 422.844 305.982Z" stroke="white" stroke-width="2" stroke-linecap="round"/>
<path d="M339.714 327.582C294.138 341.851 248.432 347.725 211.387 345.693C192.864 344.678 176.524 341.687 163.456 336.793C150.382 331.898 140.626 325.115 135.203 316.547C129.792 307.999 129.171 298.432 132.719 288.403C136.273 278.356 144.013 267.849 155.322 257.501C177.936 236.809 214.706 216.857 260.286 202.586C305.862 188.316 351.568 182.443 388.613 184.474C407.136 185.49 423.476 188.481 436.544 193.374C449.618 198.27 459.374 205.053 464.797 213.621C470.208 222.168 470.829 231.736 467.281 241.765C463.727 251.812 455.987 262.319 444.678 272.666C422.064 293.359 385.294 313.311 339.714 327.582Z" stroke="#444444" stroke-linecap="round"/>
<path d="M412.347 114.217H414.363V110.761H416.411C418.891 110.761 419.883 109.753 419.883 107.897V106.441C419.883 104.569 418.971 103.561 416.507 103.561H412.347V114.217ZM417.867 106.601V107.689C417.867 108.569 417.531 108.985 416.395 108.985H414.363V105.337H416.395C417.499 105.337 417.867 105.721 417.867 106.601ZM429.885 114.217L427.245 110.409C428.365 110.009 428.845 109.113 428.845 107.833V106.441C428.845 104.569 427.933 103.561 425.453 103.561H421.085V114.217H423.101V110.697H425.021L427.469 114.217H429.885ZM426.829 106.601V107.657C426.829 108.553 426.477 108.953 425.373 108.953H423.101V105.337H425.373C426.445 105.337 426.829 105.705 426.829 106.601ZM438.601 106.681C438.601 104.905 437.577 103.401 434.569 103.401C431.561 103.401 430.537 104.905 430.537 106.681V111.097C430.537 112.873 431.561 114.377 434.569 114.377C437.577 114.377 438.601 112.873 438.601 111.097V106.681ZM432.553 106.793C432.553 105.785 433.065 105.177 434.569 105.177C436.073 105.177 436.585 105.785 436.585 106.793V110.985C436.585 111.993 436.073 112.601 434.569 112.601C433.065 112.601 432.553 111.993 432.553 110.985V106.793ZM440.282 103.561V114.217H444.25C446.874 114.217 447.786 112.873 447.786 111.353V106.425C447.786 104.889 446.874 103.561 444.25 103.561H440.282ZM442.298 105.337H444.042C445.402 105.337 445.77 105.881 445.77 106.905V110.873C445.77 111.897 445.402 112.441 444.042 112.441H442.298V105.337ZM455.234 103.561V110.969C455.234 112.009 454.738 112.601 453.314 112.601C451.89 112.601 451.394 112.009 451.394 110.969V103.561H449.378V111.129C449.378 112.809 450.322 114.377 453.314 114.377C456.306 114.377 457.25 112.809 457.25 111.129V103.561H455.234ZM458.847 111.289C458.847 113.241 459.983 114.377 462.639 114.377C463.631 114.377 464.655 114.249 465.535 114.025L465.311 112.281C464.447 112.441 463.439 112.553 462.703 112.553C461.311 112.553 460.863 112.073 460.863 110.937V106.841C460.863 105.705 461.311 105.225 462.703 105.225C463.439 105.225 464.447 105.337 465.311 105.497L465.535 103.753C464.655 103.529 463.631 103.401 462.639 103.401C459.983 103.401 458.847 104.537 458.847 106.489V111.289ZM469.078 103.561H467.062V114.217H469.078V103.561ZM477.096 114.217H479.784V103.561H477.816V111.657L473.768 103.561H471.08V114.217H473.048V106.137L477.096 114.217ZM483.486 106.889C483.486 105.801 483.95 105.225 485.358 105.225C486.398 105.225 487.374 105.305 488.35 105.513L488.574 103.753C487.614 103.497 486.382 103.401 485.518 103.401C482.75 103.401 481.47 104.425 481.47 106.617V111.161C481.47 113.273 482.718 114.377 485.326 114.377C486.446 114.377 487.774 114.217 488.894 113.897V109.209H486.99V112.441C486.446 112.521 485.886 112.569 485.342 112.569C483.934 112.569 483.486 111.961 483.486 110.921V106.889Z" fill="#999999"/>
<ellipse cx="451" cy="91.2167" rx="5" ry="5" fill="white"/>
<path d="M38.2438 351.656C38.2438 353.608 39.3798 354.744 42.0358 354.744C43.0278 354.744 44.0518 354.616 44.9318 354.392L44.7078 352.648C43.8438 352.808 42.8358 352.92 42.0998 352.92C40.7078 352.92 40.2598 352.44 40.2598 351.304V347.208C40.2598 346.072 40.7078 345.592 42.0998 345.592C42.8358 345.592 43.8438 345.704 44.7078 345.864L44.9318 344.12C44.0518 343.896 43.0278 343.768 42.0358 343.768C39.3798 343.768 38.2438 344.904 38.2438 346.856V351.656ZM53.159 354.584H55.271L51.911 343.928H49.095L45.735 354.584H47.847L48.519 352.376H52.471L53.159 354.584ZM50.503 345.592L51.959 350.632H49.015L50.503 345.592ZM63.0388 351.688C63.0388 349.56 62.8948 349.096 60.0308 348.408C58.1908 347.96 58.1588 347.928 58.1588 346.712C58.1588 345.784 58.3988 345.496 59.7588 345.496C60.6868 345.496 61.7268 345.624 62.6068 345.816L62.8308 344.12C61.7748 343.88 60.6548 343.768 59.7268 343.768C57.0228 343.768 56.1428 344.728 56.1428 346.664C56.1428 348.92 56.4948 349.416 59.0708 349.992C60.9908 350.408 61.0228 350.504 61.0228 351.688C61.0228 352.712 60.7828 353.016 59.3268 353.016C58.2708 353.016 57.3108 352.824 56.3188 352.52L55.9668 354.104C56.6708 354.44 58.0788 354.744 59.2948 354.744C62.4468 354.744 63.0388 353.704 63.0388 351.688ZM66.7354 354.584H68.7514V345.704H71.7274V343.928H63.7594V345.704H66.7354V354.584ZM74.941 343.928H72.925V354.584H74.941V343.928ZM82.9591 354.584H85.6471V343.928H83.6791V352.024L79.6311 343.928H76.9431V354.584H78.9111V346.504L82.9591 354.584ZM89.3485 347.256C89.3485 346.168 89.8125 345.592 91.2205 345.592C92.2605 345.592 93.2365 345.672 94.2125 345.88L94.4365 344.12C93.4765 343.864 92.2445 343.768 91.3805 343.768C88.6125 343.768 87.3325 344.792 87.3325 346.984V351.528C87.3325 353.64 88.5805 354.744 91.1885 354.744C92.3085 354.744 93.6365 354.584 94.7565 354.264V349.576H92.8525V352.808C92.3085 352.888 91.7485 352.936 91.2045 352.936C89.7965 352.936 89.3485 352.328 89.3485 351.288V347.256Z" fill="#999999"/>
<ellipse cx="66" cy="331.584" rx="5" ry="5" fill="white"/>
<path d="M438.861 254.217H440.877V245.337H443.853V243.561H435.885V245.337H438.861V254.217ZM453.77 254.217L451.13 250.409C452.25 250.009 452.73 249.113 452.73 247.833V246.441C452.73 244.569 451.818 243.561 449.338 243.561H444.97V254.217H446.986V250.697H448.906L451.354 254.217H453.77ZM450.714 246.601V247.657C450.714 248.553 450.362 248.953 449.258 248.953H446.986V245.337H449.258C450.33 245.337 450.714 245.705 450.714 246.601ZM461.677 254.217H463.789L460.429 243.561H457.613L454.253 254.217H456.365L457.037 252.009H460.989L461.677 254.217ZM459.021 245.225L460.477 250.265H457.533L459.021 245.225ZM467.013 243.561H464.997V254.217H467.013V243.561ZM475.031 254.217H477.719V243.561H475.751V251.657L471.703 243.561H469.015V254.217H470.983V246.137L475.031 254.217ZM481.74 243.561H479.724V254.217H481.74V243.561ZM489.758 254.217H492.446V243.561H490.478V251.657L486.43 243.561H483.742V254.217H485.71V246.137L489.758 254.217ZM496.148 246.889C496.148 245.801 496.612 245.225 498.02 245.225C499.06 245.225 500.036 245.305 501.012 245.513L501.236 243.753C500.276 243.497 499.044 243.401 498.18 243.401C495.412 243.401 494.132 244.425 494.132 246.617V251.161C494.132 253.273 495.38 254.377 497.988 254.377C499.108 254.377 500.436 254.217 501.556 253.897V249.209H499.652V252.441C499.108 252.521 498.548 252.569 498.004 252.569C496.596 252.569 496.148 251.961 496.148 250.921V246.889Z" fill="#999999"/>
<ellipse cx="469" cy="231.217" rx="5" ry="5" fill="white"/>
</svg>
