<svg width="660" height="420" viewBox="0 0 660 420" fill="none" xmlns="http://www.w3.org/2000/svg">
<rect width="660" height="420" fill="#111111"/>
<path d="M302 200.311L317.597 185H302V200.311ZM348.849 197.417V204.218L337.357 192.94H357V185.004H329.504L302 212H314.488L329.504 197.259L344.488 212H356.996V197.417H348.849Z" fill="white"/>
<rect x="280.5" y="149.5" width="98" height="98" rx="49" stroke="#444444"/>
<path d="M281.46 106.799C218.942 141.082 167.932 182.192 135.993 220.925C120.023 240.293 108.838 259.046 103.356 276.037C97.8743 293.026 98.1067 308.205 104.892 320.491C111.677 332.777 124.422 341.096 141.759 345.572C159.097 350.049 180.981 350.668 205.947 347.588C255.875 341.428 318.022 320.485 380.54 286.201C443.058 251.918 494.068 210.808 526.007 172.075C541.977 152.707 553.162 133.954 558.644 116.963C564.126 99.9743 563.893 84.795 557.108 72.5092C550.323 60.2231 537.578 51.9043 520.241 47.4279C502.903 42.9513 481.019 42.3319 456.053 45.4122C406.125 51.5722 343.978 72.5155 281.46 106.799Z" stroke="#444444" stroke-linecap="round"/>
<path d="M393.648 83.8448C331.844 48.703 268.766 29.4925 216.759 26.8228C164.72 24.1514 123.93 38.0395 106.429 68.8778C88.9283 99.7164 97.8986 141.898 126.839 185.272C155.762 228.619 204.548 273.013 266.352 308.155C328.156 343.297 391.234 362.507 443.241 365.177C495.28 367.849 536.07 353.96 553.571 323.122C571.072 292.284 562.101 250.102 533.161 206.728C504.238 163.381 455.452 118.987 393.648 83.8448Z" stroke="#444444" stroke-linecap="round"/>
<path d="M344.449 94.1053C259.004 82.6867 180.171 83.75 121.799 94.6738C92.6072 100.137 68.5906 108.055 51.4313 118.071C34.258 128.094 24.111 140.117 22.2944 153.745C20.4778 167.373 27.1204 181.641 41.0672 195.823C55.0027 209.994 76.1046 223.942 102.843 236.879C156.311 262.749 232.107 284.476 317.551 295.895C402.996 307.313 481.829 306.25 540.201 295.326C569.393 289.863 593.409 281.945 610.569 271.929C627.742 261.906 637.889 249.882 639.706 236.255C641.522 222.627 634.88 208.359 620.933 194.177C606.997 180.006 585.895 166.058 559.157 153.121C505.689 127.251 429.893 105.524 344.449 94.1053Z" stroke="white" stroke-width="2" stroke-linecap="round"/>
<path d="M458.022 240.072C458.022 242.024 459.158 243.16 461.814 243.16C462.806 243.16 463.83 243.032 464.71 242.808L464.486 241.064C463.622 241.224 462.614 241.336 461.878 241.336C460.486 241.336 460.038 240.856 460.038 239.72V235.624C460.038 234.488 460.486 234.008 461.878 234.008C462.614 234.008 463.622 234.12 464.486 234.28L464.71 232.536C463.83 232.312 462.806 232.184 461.814 232.184C459.158 232.184 458.022 233.32 458.022 235.272V240.072ZM474.141 243V232.344H472.125V236.728H468.173V232.344H466.157V243H468.173V238.504H472.125V243H474.141ZM478.163 232.344H476.147V243H478.163V232.344ZM486.181 243H488.869V232.344H486.901V240.44L482.853 232.344H480.165V243H482.133V234.92L486.181 243ZM497.419 243H499.531L496.171 232.344H493.355L489.995 243H492.107L492.779 240.792H496.731L497.419 243ZM494.763 234.008L496.219 239.048H493.275L494.763 234.008Z" fill="#999999"/>
<ellipse cx="478" cy="220" rx="5" ry="5" fill="white"/>
<path d="M564.548 194H571.076V192.224H566.564V189.472H570.724V187.696H566.564V185.12H571.076V183.344H564.548V194ZM578.454 183.344V190.752C578.454 191.792 577.958 192.384 576.534 192.384C575.11 192.384 574.614 191.792 574.614 190.752V183.344H572.598V190.912C572.598 192.592 573.542 194.16 576.534 194.16C579.526 194.16 580.47 192.592 580.47 190.912V183.344H578.454ZM591.107 194L588.467 190.192C589.587 189.792 590.067 188.896 590.067 187.616V186.224C590.067 184.352 589.155 183.344 586.675 183.344H582.307V194H584.323V190.48H586.243L588.691 194H591.107ZM588.051 186.384V187.44C588.051 188.336 587.699 188.736 586.595 188.736H584.323V185.12H586.595C587.667 185.12 588.051 185.488 588.051 186.384ZM599.823 186.464C599.823 184.688 598.799 183.184 595.791 183.184C592.783 183.184 591.759 184.688 591.759 186.464V190.88C591.759 192.656 592.783 194.16 595.791 194.16C598.799 194.16 599.823 192.656 599.823 190.88V186.464ZM593.775 186.576C593.775 185.568 594.287 184.96 595.791 184.96C597.295 184.96 597.807 185.568 597.807 186.576V190.768C597.807 191.776 597.295 192.384 595.791 192.384C594.287 192.384 593.775 191.776 593.775 190.768V186.576ZM601.503 194H603.519V190.544H605.567C608.047 190.544 609.039 189.536 609.039 187.68V186.224C609.039 184.352 608.127 183.344 605.663 183.344H601.503V194ZM607.023 186.384V187.472C607.023 188.352 606.687 188.768 605.551 188.768H603.519V185.12H605.551C606.655 185.12 607.023 185.504 607.023 186.384ZM610.242 194H616.77V192.224H612.258V189.472H616.418V187.696H612.258V185.12H616.77V183.344H610.242V194Z" fill="#999999"/>
<ellipse cx="590" cy="171" rx="5" ry="5" fill="white"/>
<path d="M231.085 350.104C231.085 347.976 230.941 347.512 228.077 346.824C226.237 346.376 226.205 346.344 226.205 345.128C226.205 344.2 226.445 343.912 227.805 343.912C228.733 343.912 229.773 344.04 230.653 344.232L230.877 342.536C229.821 342.296 228.701 342.184 227.773 342.184C225.069 342.184 224.189 343.144 224.189 345.08C224.189 347.336 224.541 347.832 227.117 348.408C229.037 348.824 229.069 348.92 229.069 350.104C229.069 351.128 228.829 351.432 227.373 351.432C226.317 351.432 225.357 351.24 224.365 350.936L224.013 352.52C224.717 352.856 226.125 353.16 227.341 353.16C230.493 353.16 231.085 352.12 231.085 350.104ZM240.43 345.464C240.43 343.688 239.406 342.184 236.398 342.184C233.39 342.184 232.366 343.688 232.366 345.464V349.88C232.366 351.656 233.39 353.16 236.398 353.16C239.406 353.16 240.43 351.656 240.43 349.88V345.464ZM234.382 345.576C234.382 344.568 234.894 343.96 236.398 343.96C237.902 343.96 238.414 344.568 238.414 345.576V349.768C238.414 350.776 237.902 351.384 236.398 351.384C234.894 351.384 234.382 350.776 234.382 349.768V345.576ZM247.886 342.344V349.752C247.886 350.792 247.39 351.384 245.966 351.384C244.542 351.384 244.046 350.792 244.046 349.752V342.344H242.03V349.912C242.03 351.592 242.974 353.16 245.966 353.16C248.958 353.16 249.902 351.592 249.902 349.912V342.344H247.886ZM253.915 353H255.931V344.12H258.907V342.344H250.939V344.12H253.915V353ZM268.009 353V342.344H265.993V346.728H262.041V342.344H260.025V353H262.041V348.504H265.993V353H268.009ZM269.936 353H276.464V351.224H271.952V348.472H276.112V346.696H271.952V344.12H276.464V342.344H269.936V353ZM284.923 353H287.035L283.675 342.344H280.859L277.499 353H279.611L280.283 350.792H284.235L284.923 353ZM282.267 344.008L283.723 349.048H280.779L282.267 344.008ZM294.803 350.104C294.803 347.976 294.659 347.512 291.795 346.824C289.955 346.376 289.923 346.344 289.923 345.128C289.923 344.2 290.163 343.912 291.523 343.912C292.451 343.912 293.491 344.04 294.371 344.232L294.595 342.536C293.539 342.296 292.419 342.184 291.491 342.184C288.787 342.184 287.907 343.144 287.907 345.08C287.907 347.336 288.259 347.832 290.835 348.408C292.755 348.824 292.787 348.92 292.787 350.104C292.787 351.128 292.547 351.432 291.091 351.432C290.035 351.432 289.075 351.24 288.083 350.936L287.731 352.52C288.435 352.856 289.843 353.16 291.059 353.16C294.211 353.16 294.803 352.12 294.803 350.104ZM298.5 353H300.516V344.12H303.492V342.344H295.524V344.12H298.5V353ZM314.113 353H316.225L312.865 342.344H310.049L306.689 353H308.801L309.473 350.792H313.425L314.113 353ZM311.457 344.008L312.913 349.048H309.969L311.457 344.008ZM323.992 350.104C323.992 347.976 323.848 347.512 320.984 346.824C319.144 346.376 319.112 346.344 319.112 345.128C319.112 344.2 319.352 343.912 320.712 343.912C321.64 343.912 322.68 344.04 323.56 344.232L323.784 342.536C322.728 342.296 321.608 342.184 320.68 342.184C317.976 342.184 317.096 343.144 317.096 345.08C317.096 347.336 317.448 347.832 320.024 348.408C321.944 348.824 321.976 348.92 321.976 350.104C321.976 351.128 321.736 351.432 320.28 351.432C319.224 351.432 318.264 351.24 317.272 350.936L316.92 352.52C317.624 352.856 319.032 353.16 320.248 353.16C323.4 353.16 323.992 352.12 323.992 350.104ZM327.609 342.344H325.593V353H327.609V342.344ZM336.235 353H338.347L334.987 342.344H332.171L328.811 353H330.923L331.595 350.792H335.547L336.235 353ZM333.579 344.008L335.035 349.048H332.091L333.579 344.008Z" fill="#999999"/>
<ellipse cx="282" cy="330" rx="5" ry="5" fill="white"/>
<path d="M71.4482 236.344V243.752C71.4482 244.792 70.9522 245.384 69.5282 245.384C68.1042 245.384 67.6082 244.792 67.6082 243.752V236.344H65.5922V243.912C65.5922 245.592 66.5362 247.16 69.5282 247.16C72.5202 247.16 73.4642 245.592 73.4642 243.912V236.344H71.4482ZM81.9416 244.104C81.9416 241.976 81.7976 241.512 78.9336 240.824C77.0936 240.376 77.0616 240.344 77.0616 239.128C77.0616 238.2 77.3016 237.912 78.6616 237.912C79.5896 237.912 80.6296 238.04 81.5096 238.232L81.7336 236.536C80.6776 236.296 79.5576 236.184 78.6296 236.184C75.9256 236.184 75.0456 237.144 75.0456 239.08C75.0456 241.336 75.3976 241.832 77.9736 242.408C79.8936 242.824 79.9256 242.92 79.9256 244.104C79.9256 245.128 79.6856 245.432 78.2296 245.432C77.1736 245.432 76.2136 245.24 75.2216 244.936L74.8696 246.52C75.5736 246.856 76.9816 247.16 78.1976 247.16C81.3496 247.16 81.9416 246.12 81.9416 244.104ZM90.0081 247H92.1201L88.7601 236.344H85.9441L82.5841 247H84.6961L85.3681 244.792H89.3201L90.0081 247ZM87.3521 238.008L88.8081 243.048H85.8641L87.3521 238.008Z" fill="#999999"/>
<ellipse cx="78" cy="224" rx="5" ry="5" fill="white"/>
<path d="M159.379 190.344V201C159.379 201.672 159.235 201.768 158.019 202.936L159.219 204.296C160.947 202.824 161.395 202.28 161.395 201.176V190.344H159.379ZM169.866 201H171.978L168.618 190.344H165.802L162.442 201H164.554L165.226 198.792H169.178L169.866 201ZM167.21 192.008L168.666 197.048H165.722L167.21 192.008ZM173.106 201H175.122V197.544H177.17C179.65 197.544 180.642 196.536 180.642 194.68V193.224C180.642 191.352 179.73 190.344 177.266 190.344H173.106V201ZM178.626 193.384V194.472C178.626 195.352 178.29 195.768 177.154 195.768H175.122V192.12H177.154C178.258 192.12 178.626 192.504 178.626 193.384ZM187.672 201H189.784L186.424 190.344H183.608L180.248 201H182.36L183.032 198.792H186.984L187.672 201ZM185.016 192.008L186.472 197.048H183.528L185.016 192.008ZM196.928 201H199.616V190.344H197.648V198.44L193.6 190.344H190.912V201H192.88V192.92L196.928 201Z" fill="#999999"/>
<ellipse cx="179" cy="178" rx="5" ry="5" fill="white"/>
<path d="M355.091 121H357.203L353.843 110.344H351.027L347.667 121H349.779L350.451 118.792H354.403L355.091 121ZM352.435 112.008L353.891 117.048H350.947L352.435 112.008ZM364.971 118.104C364.971 115.976 364.827 115.512 361.963 114.824C360.123 114.376 360.091 114.344 360.091 113.128C360.091 112.2 360.331 111.912 361.691 111.912C362.619 111.912 363.659 112.04 364.539 112.232L364.763 110.536C363.707 110.296 362.587 110.184 361.659 110.184C358.955 110.184 358.075 111.144 358.075 113.08C358.075 115.336 358.427 115.832 361.003 116.408C362.923 116.824 362.955 116.92 362.955 118.104C362.955 119.128 362.715 119.432 361.259 119.432C360.203 119.432 359.243 119.24 358.251 118.936L357.899 120.52C358.603 120.856 360.011 121.16 361.227 121.16C364.379 121.16 364.971 120.12 364.971 118.104ZM368.587 110.344H366.571V121H368.587V110.344ZM377.213 121H379.325L375.965 110.344H373.149L369.789 121H371.901L372.573 118.792H376.525L377.213 121ZM374.557 112.008L376.013 117.048H373.069L374.557 112.008Z" fill="#999999"/>
<ellipse cx="363" cy="98" rx="5" ry="5" fill="white"/>
</svg>
