<svg width="772" height="540" viewBox="0 0 772 540" fill="none" xmlns="http://www.w3.org/2000/svg">
<line x1="383" y1="90" x2="383" y2="467" stroke="#E4E4E4" stroke-width="2"/>
<line x1="382" y1="404" x2="592" y2="404" stroke="#E4E4E4" stroke-width="2"/>
<rect width="180" height="180" transform="translate(292 180)" fill="#AFA06B"/>
<path d="M347.512 277H340.114V264.148H347.512V266.38H342.832V269.206H347.188V271.438H342.832V274.75H347.512V277ZM357.764 273.436C357.764 274.192 357.578 274.852 357.206 275.416C356.834 275.98 356.294 276.418 355.586 276.73C354.89 277.03 354.038 277.18 353.03 277.18C352.586 277.18 352.148 277.15 351.716 277.09C351.296 277.03 350.888 276.946 350.492 276.838C350.108 276.718 349.742 276.574 349.394 276.406V273.868C350.006 274.132 350.636 274.378 351.284 274.606C351.944 274.822 352.598 274.93 353.246 274.93C353.69 274.93 354.044 274.87 354.308 274.75C354.584 274.63 354.782 274.468 354.902 274.264C355.034 274.06 355.1 273.826 355.1 273.562C355.1 273.238 354.986 272.962 354.758 272.734C354.542 272.506 354.248 272.296 353.876 272.104C353.504 271.9 353.078 271.684 352.598 271.456C352.298 271.312 351.974 271.144 351.626 270.952C351.278 270.748 350.942 270.502 350.618 270.214C350.306 269.914 350.048 269.554 349.844 269.134C349.64 268.714 349.538 268.21 349.538 267.622C349.538 266.854 349.712 266.2 350.06 265.66C350.42 265.108 350.924 264.688 351.572 264.4C352.232 264.112 353.006 263.968 353.894 263.968C354.566 263.968 355.202 264.046 355.802 264.202C356.414 264.358 357.05 264.58 357.71 264.868L356.828 266.992C356.24 266.752 355.712 266.566 355.244 266.434C354.776 266.302 354.296 266.236 353.804 266.236C353.468 266.236 353.18 266.29 352.94 266.398C352.7 266.506 352.514 266.656 352.382 266.848C352.262 267.04 352.202 267.268 352.202 267.532C352.202 267.832 352.292 268.09 352.472 268.306C352.652 268.51 352.922 268.708 353.282 268.9C353.642 269.092 354.092 269.32 354.632 269.584C355.292 269.896 355.85 270.22 356.306 270.556C356.774 270.892 357.134 271.288 357.386 271.744C357.638 272.2 357.764 272.764 357.764 273.436ZM364.978 269.782H370.072V276.442C369.4 276.67 368.698 276.85 367.966 276.982C367.246 277.114 366.424 277.18 365.5 277.18C364.228 277.18 363.142 276.928 362.242 276.424C361.354 275.92 360.676 275.176 360.208 274.192C359.752 273.208 359.524 271.996 359.524 270.556C359.524 269.212 359.782 268.048 360.298 267.064C360.826 266.08 361.588 265.318 362.584 264.778C363.58 264.238 364.798 263.968 366.238 263.968C366.922 263.968 367.594 264.04 368.254 264.184C368.914 264.328 369.514 264.52 370.054 264.76L369.154 266.938C368.758 266.734 368.308 266.566 367.804 266.434C367.3 266.302 366.772 266.236 366.22 266.236C365.428 266.236 364.738 266.416 364.15 266.776C363.574 267.136 363.124 267.646 362.8 268.306C362.488 268.954 362.332 269.722 362.332 270.61C362.332 271.45 362.446 272.194 362.674 272.842C362.902 273.49 363.262 274 363.754 274.372C364.246 274.732 364.888 274.912 365.68 274.912C365.944 274.912 366.172 274.906 366.364 274.894C366.568 274.87 366.754 274.846 366.922 274.822C367.09 274.786 367.252 274.756 367.408 274.732V272.05H364.978V269.782ZM372.262 271.402V273.166H388.75V271.402H372.262ZM378.202 269.71C377.158 271.492 375.592 273.814 374.476 275.254L376.564 275.884C377.644 274.444 379.174 272.158 380.326 270.268L378.202 269.71ZM383.17 272.122C381.766 275.524 378.436 276.478 372.514 276.748C372.874 277.234 373.216 278.008 373.36 278.638C379.894 278.098 383.53 276.874 385.294 272.662L383.17 272.122ZM375.772 275.398C380.056 276.316 384.25 277.594 386.86 278.638L388.174 276.838C385.474 275.866 381.01 274.642 376.888 273.832L375.772 275.398ZM372.46 265.318V267.064H388.462V265.318H372.46ZM379.39 263.302V270.178H381.532V263.302H379.39ZM378.58 265.768C377.248 267.37 374.602 268.72 371.956 269.35C372.388 269.746 372.982 270.52 373.252 271.024C376.024 270.196 378.706 268.54 380.308 266.47L378.58 265.768ZM382.288 265.786L380.56 266.488C382.18 268.504 384.844 270.178 387.598 270.97C387.886 270.43 388.498 269.62 388.966 269.188C386.32 268.594 383.638 267.316 382.288 265.786ZM385.366 261.718C382.648 262.294 377.842 262.6 373.756 262.636C373.936 263.068 374.152 263.824 374.206 264.292C378.4 264.274 383.44 263.986 386.914 263.23L385.366 261.718ZM394.978 264.274H402.052V265.642H394.978V264.274ZM392.71 262.438V267.478H404.464V262.438H392.71ZM397.21 271.456V273.022C397.21 274.228 396.67 275.902 390.478 277.018C391 277.468 391.684 278.314 391.954 278.782C398.47 277.306 399.55 274.984 399.55 273.076V271.456H397.21ZM399.154 276.226C401.188 276.91 404.104 278.026 405.508 278.746L406.606 276.91C405.094 276.208 402.142 275.2 400.198 274.624L399.154 276.226ZM391.936 268.648V275.272H394.186V270.628H402.934V275.02H405.292V268.648H391.936ZM409.162 275.974L409.45 278.08C412.69 277.954 417.442 277.738 421.852 277.486L421.924 275.506C417.388 275.704 412.384 275.884 409.162 275.974ZM409.072 270.61V272.626H424.048V270.61H409.072ZM412.276 267.154V269.134H420.718V267.154H412.276ZM413.482 271.924C413.032 273.436 412.168 275.434 411.43 276.748L413.32 277.378C414.13 276.172 415.102 274.3 415.948 272.608L413.482 271.924ZM417.946 273.778C419.494 275.218 421.222 277.27 421.978 278.638L423.976 277.432C423.148 276.064 421.474 274.174 419.854 272.788L417.946 273.778ZM416.488 263.824C418.018 265.912 421.06 268.18 423.76 269.44C424.156 268.792 424.642 268.018 425.164 267.478C422.302 266.452 419.44 264.4 417.532 261.754H415.246C413.914 263.878 411.034 266.452 407.956 267.802C408.406 268.27 408.982 269.08 409.234 269.602C412.222 268.18 415.03 265.876 416.488 263.824Z" fill="white"/>
<rect x="293" y="1" width="178" height="88" fill="#111111"/>
<path d="M356.008 42.208V43.666H372.01V42.208H356.008ZM357.286 49.48V50.848H370.75V49.48H357.286ZM355.81 51.55V53.08H372.19V51.55H355.81ZM362.83 41.002V52.684H364.972V41.002H362.83ZM356.008 37.726V39.418H371.938V37.726H356.008ZM359.914 36.718V40.12H362.002V36.718H359.914ZM365.908 36.718V40.048H368.032V36.718H365.908ZM359.716 47.068H368.266V47.716H359.716V47.068ZM359.716 45.394H368.266V46.042H359.716V45.394ZM357.7 44.26V48.85H370.39V44.26H357.7ZM369.508 39.904C366.502 40.228 361.444 40.39 357.088 40.39C357.214 40.714 357.394 41.326 357.412 41.704C361.822 41.74 367.006 41.578 370.66 41.182L369.508 39.904ZM380.83 36.718V51.568C380.83 51.874 380.722 51.982 380.38 52C380.074 52 379.012 52.018 378.148 51.982C378.418 52.414 378.76 53.17 378.868 53.674C380.398 53.674 381.37 53.638 382.072 53.368C382.756 53.062 383.026 52.63 383.026 51.568V36.718H380.83ZM374.08 37.888V39.598H389.92V37.888H374.08ZM377.986 41.686H385.942V42.55H377.986V41.686ZM375.934 40.318V43.918H388.156V40.318H375.934ZM375.484 44.71V46.186H386.266V51.748H388.462V44.71H375.484ZM373.666 46.942V48.58H390.334V46.942H373.666ZM375.34 49.426V50.992H387.436V49.426H375.34ZM392.656 50.974L392.944 53.08C396.184 52.954 400.936 52.738 405.346 52.486L405.418 50.506C400.882 50.704 395.878 50.884 392.656 50.974ZM392.566 45.61V47.626H407.542V45.61H392.566ZM395.77 42.154V44.134H404.212V42.154H395.77ZM396.976 46.924C396.526 48.436 395.662 50.434 394.924 51.748L396.814 52.378C397.624 51.172 398.596 49.3 399.442 47.608L396.976 46.924ZM401.44 48.778C402.988 50.218 404.716 52.27 405.472 53.638L407.47 52.432C406.642 51.064 404.968 49.174 403.348 47.788L401.44 48.778ZM399.982 38.824C401.512 40.912 404.554 43.18 407.254 44.44C407.65 43.792 408.136 43.018 408.658 42.478C405.796 41.452 402.934 39.4 401.026 36.754H398.74C397.408 38.878 394.528 41.452 391.45 42.802C391.9 43.27 392.476 44.08 392.728 44.602C395.716 43.18 398.524 40.876 399.982 38.824Z" fill="white"/>
<rect x="293" y="1" width="178" height="88" stroke="white" stroke-width="2"/>
<rect x="293" y="451" width="178" height="88" fill="white"/>
<path d="M349.816 477.518V489.848C349.816 490.226 349.672 490.352 349.24 490.37C348.808 490.37 347.242 490.388 345.946 490.298C346.288 490.892 346.72 491.954 346.846 492.602C348.7 492.602 350.014 492.566 350.914 492.188C351.778 491.846 352.084 491.198 352.084 489.902V477.518H349.816ZM339.52 481.118V489.506H341.626V481.118H339.52ZM340.42 481.118V483.17H345.064V486.068H340.42V488.12H347.206V481.118H340.42ZM337.864 476.924V479.102H354.172V476.924H337.864ZM362.254 477.77V479.714H371.668V477.77H362.254ZM361.642 484.682V486.644H372.316V484.682H361.642ZM361.48 481.298V483.26H372.46V481.298H361.48ZM365.944 475.79V482.306H367.996V475.79H365.944ZM368.284 482.918V490.316C368.284 490.55 368.212 490.622 367.924 490.622C367.654 490.64 366.718 490.64 365.908 490.586C366.16 491.162 366.43 492.026 366.502 492.62C367.816 492.62 368.77 492.602 369.436 492.278C370.138 491.972 370.336 491.432 370.336 490.352V482.918H368.284ZM362.632 487.67C363.388 488.642 364.216 489.992 364.522 490.856L366.358 489.776C365.998 488.912 365.098 487.634 364.342 486.716L362.632 487.67ZM355.36 484.844L355.846 486.932C357.448 486.464 359.482 485.888 361.372 485.312L361.102 483.368C359.014 483.944 356.836 484.52 355.36 484.844ZM355.648 479.138V481.118H361.21V479.138H355.648ZM357.682 475.736V490.208C357.682 490.46 357.61 490.532 357.394 490.532C357.178 490.532 356.548 490.532 355.9 490.496C356.152 491.09 356.404 491.972 356.458 492.512C357.61 492.53 358.402 492.44 358.942 492.116C359.5 491.774 359.68 491.216 359.68 490.226V475.736H357.682ZM380.812 477.122V478.904H389.11V477.122H380.812ZM383.872 475.718V480.83H385.996V475.718H383.872ZM381.316 483.098C382.072 483.512 383.008 484.124 383.458 484.574L384.376 483.458C383.89 483.026 382.918 482.45 382.18 482.09L381.316 483.098ZM379.966 484.664C380.776 485.114 381.784 485.834 382.252 486.338L383.242 485.186C382.72 484.7 381.712 484.034 380.92 483.62L379.966 484.664ZM380.2 480.038V481.856H388.606V480.038H380.2ZM388.192 480.038V480.308C387.994 481.442 387.616 482.864 387.31 483.746L388.984 484.106C389.38 483.134 389.83 481.622 390.154 480.254L388.786 479.966L388.462 480.038H388.192ZM379.822 486.122V487.976H389.902V486.122H379.822ZM384.304 482.324V484.214C384.304 486.302 383.818 489.236 379.39 491.072C379.786 491.45 380.398 492.188 380.65 492.656C385.636 490.478 386.284 486.878 386.284 484.286V482.324H384.304ZM385.33 489.38C386.662 490.316 388.282 491.702 389.02 492.638L390.406 491.324C389.614 490.406 387.922 489.092 386.626 488.228L385.33 489.38ZM374.188 487.958C374.188 487.616 375.43 487.04 375.43 487.04V486.986C377.05 485.24 378.724 482.792 379.948 480.416L378.346 479.426C377.266 481.874 375.52 484.394 374.962 485.042C374.404 485.726 374.026 486.14 373.594 486.248C373.792 486.716 374.098 487.598 374.188 487.958ZM374.188 487.958C374.62 487.67 375.322 487.4 379.426 486.266C379.354 485.834 379.318 485.024 379.336 484.466L374.818 485.582L373.99 486.212L374.188 487.958ZM374.062 483.566C374.062 483.224 375.124 482.594 375.124 482.594V482.558C376.384 480.956 377.698 478.688 378.544 476.564L376.708 475.7C376.078 477.824 374.872 480.092 374.476 480.668C374.08 481.262 373.792 481.64 373.414 481.748C373.648 482.252 373.954 483.188 374.062 483.566ZM374.062 483.566C374.404 483.404 374.962 483.278 377.59 483.008C377.59 482.594 377.68 481.838 377.788 481.316L374.854 481.532L373.99 482.108L374.062 483.566ZM373.576 489.614L374.044 491.612C375.682 490.964 377.734 490.136 379.642 489.344L379.282 487.616C377.194 488.39 375.016 489.164 373.576 489.614ZM398.704 483.8L396.85 484.34C398.758 488.822 401.926 491.558 407.254 492.656C407.56 492.062 408.154 491.144 408.604 490.694C403.51 489.848 400.252 487.472 398.704 483.8ZM404.554 483.08V483.44C403.312 487.436 399.658 489.812 395.248 490.748C395.662 491.216 396.166 492.062 396.4 492.638C401.314 491.378 405.238 488.822 406.894 483.674L405.4 482.99L404.986 483.08H404.554ZM398.038 483.08L397.408 485.15H404.878V483.08H398.038ZM398.92 475.592C398.146 482.018 396.202 486.878 391.342 489.488C391.864 489.884 392.638 490.766 392.926 491.234C398.308 488.228 400.396 483.134 401.332 475.988L398.92 475.592ZM403.006 476.78C403.708 477.59 404.662 478.706 405.112 479.372L406.858 478.238C406.39 477.59 405.382 476.528 404.698 475.772L403.006 476.78ZM393.394 482C393.394 481.55 395.032 480.848 395.032 480.848V480.812C395.68 479.768 396.544 478.04 396.994 476.456L394.726 476.096C394.384 477.518 393.682 478.922 393.466 479.3C393.232 479.714 392.962 479.966 392.692 480.056C392.926 480.578 393.268 481.55 393.394 482ZM393.394 482C393.556 481.73 394.33 481.586 395.284 481.586H407.992L408.01 479.534H394.672L393.394 480.416V482ZM413.86 482.594V484.394H425.416V482.594H413.86ZM413.374 485.618V487.436H426.226V485.618H413.374ZM416.146 481.1V486.464H418.126V481.1H416.146ZM415.246 486.284V490.82H417.226V486.284H415.246ZM420.808 481.1V486.446H422.824V481.1H420.808ZM411.322 476.492V481.838C411.322 484.718 411.178 488.786 409.378 491.558C409.918 491.774 410.89 492.332 411.322 492.674C413.212 489.704 413.5 485.006 413.5 481.838V476.492H411.322ZM412.654 476.492V478.31H423.076V479.588H412.654V481.406H425.254V476.492H412.654ZM413.392 490.406L413.698 492.386C415.57 492.098 418.09 491.738 420.43 491.342L420.34 489.488C417.802 489.866 415.156 490.226 413.392 490.406ZM420.304 486.374L418.522 486.752C419.692 489.812 421.744 491.792 425.146 492.638C425.416 492.098 425.992 491.288 426.424 490.856C423.292 490.28 421.258 488.696 420.304 486.374ZM423.958 487.202C423.238 487.796 421.996 488.606 421.096 489.074L422.482 490.1C423.4 489.668 424.606 489.002 425.578 488.3L423.958 487.202ZM351.31 512.568V514.152H360.094V512.568H351.31ZM353.884 501.498V503.658H355.972V501.498H353.884ZM347.242 502.74V506.322H349.276V504.36H360.796V506.322H362.902V502.74H347.242ZM351.238 505.116V506.664H357.898V507.6H351.238V509.148H360.058V505.116H351.238ZM351.328 509.958V511.542H359.266V514.638H361.426V509.958H351.328ZM350.05 505.116V514.656H352.102V505.116H350.05ZM349.06 498.978V500.67H354.73V498.978H349.06ZM356.35 498.978V500.67H363.334V498.978H356.35ZM349.132 497.574C348.574 498.942 347.548 500.346 346.468 501.246C346.954 501.498 347.818 502.074 348.232 502.398C349.294 501.372 350.446 499.734 351.148 498.114L349.132 497.574ZM356.458 497.574C355.936 498.888 354.928 500.202 353.776 501.03C354.316 501.264 355.234 501.732 355.666 502.056C356.746 501.12 357.862 499.626 358.51 498.078L356.458 497.574ZM349.726 500.292C350.158 500.94 350.626 501.858 350.788 502.416L352.732 501.858C352.516 501.282 352.012 500.418 351.562 499.806L349.726 500.292ZM357.772 500.346C358.276 500.976 358.87 501.894 359.104 502.434L361.102 501.876C360.814 501.3 360.184 500.436 359.662 499.842L357.772 500.346ZM373.234 503.514H378.688V505.062H373.234V503.514ZM373.234 500.31H378.688V501.822H373.234V500.31ZM371.29 498.474V506.88H380.74V498.474H371.29ZM371.164 508.428V510.372H380.938V508.428H371.164ZM369.904 512.1V514.044H381.532V512.1H369.904ZM364.63 498.744V500.76H370.606V498.744H364.63ZM364.81 503.928V505.926H370.3V503.928H364.81ZM364.432 510.768L364.918 512.964C366.646 512.406 368.806 511.704 370.822 511.02L370.444 508.95C368.284 509.652 365.98 510.372 364.432 510.768ZM366.628 499.536V510.93L368.68 510.606V499.536H366.628ZM375.088 499.248V506.034H374.89V513.018H377.104V506.034H376.906V499.248H375.088ZM383.278 498.402V514.638H385.51V500.382H396.346V514.638H398.686V498.402H383.278ZM384.556 512.046V513.99H397.732V512.046H384.556ZM386.266 502.884V504.774H395.716V502.884H386.266ZM391.45 500.922V509.364C391.45 509.562 391.378 509.616 391.144 509.616C390.91 509.634 390.208 509.634 389.542 509.598C389.812 510.12 390.118 510.966 390.226 511.524C391.342 511.524 392.134 511.488 392.746 511.164C393.376 510.858 393.52 510.336 393.52 509.382V500.922H391.45ZM391.594 503.424C390.208 505.656 387.868 507.582 385.816 508.644C386.284 509.04 386.896 509.706 387.166 510.12C389.308 508.986 391.756 506.988 393.34 504.666L391.594 503.424ZM401.476 498.42V514.566H403.51V500.346H406.318V498.42H401.476ZM405.868 498.42V499.068C405.544 500.22 404.842 502.56 404.248 504.108C405.472 505.35 405.814 506.502 405.814 507.348C405.814 507.852 405.706 508.212 405.436 508.374C405.274 508.482 405.076 508.518 404.86 508.518C404.626 508.536 404.32 508.518 403.96 508.5C404.302 509.058 404.482 509.94 404.5 510.498C404.968 510.516 405.436 510.498 405.832 510.462C406.246 510.39 406.642 510.264 406.948 510.048C407.596 509.598 407.866 508.806 407.866 507.6C407.866 506.538 407.614 505.26 406.318 503.856C406.912 502.506 407.596 500.742 408.136 499.248L406.588 498.348L406.264 498.42H405.868ZM410.782 497.79C410.746 503.694 410.962 509.688 405.976 512.964C406.588 513.378 407.254 514.062 407.596 514.62C412.888 510.912 412.96 504.216 413.014 497.79H410.782ZM412.87 502.884L410.908 503.064C411.214 505.206 411.862 511.524 416.092 514.656C416.434 514.08 417.046 513.432 417.676 513C413.626 510.192 413.068 504.702 412.87 502.884Z" fill="#111111"/>
<rect x="293" y="451" width="178" height="88" stroke="#E4E4E4" stroke-width="2"/>
<rect x="593" y="361" width="178" height="88" fill="white"/>
<path d="M628.918 410.632V412.774H645.118V410.632H628.918ZM633.58 396.952V411.442H635.812V396.952H633.58ZM638.188 396.934V411.568H640.402V396.934H638.188ZM642.994 400.552C642.364 402.748 641.212 405.466 640.276 407.158L642.058 408.076C643.012 406.33 644.146 403.774 644.956 401.488L642.994 400.552ZM629.152 401.11C629.962 403.306 630.916 406.24 631.312 407.968L633.472 407.194C633.004 405.466 631.96 402.64 631.132 400.516L629.152 401.11ZM648.106 406.744V408.58H660.544V406.744H648.106ZM659.86 406.744L659.842 407.014C659.536 409.732 659.122 411.1 658.654 411.46C658.42 411.622 658.168 411.64 657.772 411.64C657.25 411.64 655.936 411.622 654.748 411.514C655.126 412.036 655.396 412.828 655.432 413.386C656.62 413.44 657.79 413.44 658.438 413.404C659.284 413.35 659.842 413.224 660.364 412.738C661.048 412.126 661.498 410.686 661.894 407.608C661.948 407.32 662.002 406.744 662.002 406.744H659.86ZM653.506 405.214C653.02 409.12 650.986 410.992 646.918 411.82C647.314 412.216 647.944 413.134 648.178 413.602C652.57 412.396 654.91 410.128 655.756 405.394L653.506 405.214ZM651.652 398.428V400.228H660.67V398.428H651.652ZM660.13 398.428V398.698C658.078 401.776 652.39 403.396 646.756 403.882C647.098 404.35 647.458 405.214 647.602 405.754C653.542 405.052 659.5 403.234 662.218 399.202L660.886 398.338L660.544 398.428H660.13ZM651.958 400.282L650.194 401.002C652.75 403.9 656.926 405.16 662.29 405.556C662.542 404.98 663.046 404.116 663.478 403.648C658.276 403.432 653.992 402.46 651.958 400.282ZM652.48 396.7C651.562 398.23 649.87 399.868 647.314 401.02C647.728 401.362 648.322 402.172 648.574 402.676C651.472 401.182 653.362 399.292 654.676 397.132L652.48 396.7ZM664.684 400.966V402.964H670.228V400.966H664.684ZM666.43 396.718V413.62H668.5V396.718H666.43ZM670.696 400.048V402.154H678.022V400.048H670.696ZM677.158 400.048V400.516C677.014 407.806 676.888 410.542 676.438 411.1C676.258 411.352 676.078 411.406 675.772 411.406C675.376 411.406 674.584 411.406 673.684 411.334C674.062 411.91 674.296 412.81 674.332 413.404C675.268 413.44 676.186 413.44 676.78 413.332C677.428 413.224 677.86 413.026 678.292 412.396C678.904 411.532 679.048 408.796 679.192 401.02C679.192 400.768 679.21 400.048 679.21 400.048H677.158ZM670.498 403.432C670.21 405.034 669.67 406.636 668.896 407.68C669.346 407.932 670.156 408.436 670.516 408.742C671.326 407.536 672.028 405.682 672.388 403.81L670.498 403.432ZM678.724 403.81C679.21 405.556 679.714 407.842 679.876 409.192L681.766 408.706C681.55 407.374 680.974 405.142 680.47 403.432L678.724 403.81ZM673.432 396.808V400.66C673.432 404.152 673.072 408.85 669.004 412.144C669.508 412.468 670.282 413.17 670.642 413.638C675.07 409.912 675.466 404.638 675.466 400.66V396.808H673.432ZM688.696 397.366V404.368C688.696 406.924 688.57 410.218 687.058 412.432C687.472 412.666 688.264 413.278 688.588 413.62C690.298 411.172 690.568 407.194 690.568 404.368V397.366H688.696ZM689.794 397.366V399.256H697.822V397.366H689.794ZM696.886 397.366V411.334C696.886 411.586 696.796 411.676 696.544 411.676C696.292 411.694 695.5 411.694 694.744 411.64C695.014 412.162 695.302 413.062 695.374 413.602C696.616 413.602 697.426 413.566 698.02 413.242C698.614 412.882 698.776 412.324 698.776 411.37V397.366H696.886ZM691.396 400.786V402.316H696.076V400.786H691.396ZM691.072 403.54V405.052H696.436V403.54H691.072ZM692.854 399.598V404.656H694.528V399.598H692.854ZM692.116 406.15V407.644H694.492V409.12H692.116V410.632H696.076V406.15H692.116ZM691.198 406.15V411.442H692.764V406.15H691.198ZM683.44 398.284C684.43 399.148 685.69 400.39 686.248 401.218L687.742 399.724C687.13 398.932 685.816 397.762 684.808 396.97L683.44 398.284ZM684.934 413.296C685.222 412.9 685.78 412.414 688.624 409.93C688.372 409.534 687.994 408.706 687.796 408.13L684.79 410.704L684.43 411.37L684.934 413.296ZM682.612 402.262V404.332H685.87V402.262H682.612ZM684.934 413.296C684.934 412.486 686.842 410.56 686.842 410.56V402.262H684.754V409.534C684.754 410.65 684.088 411.514 683.62 411.91C683.998 412.198 684.7 412.9 684.934 413.296ZM701.278 397.402V413.638H703.51V399.382H714.346V413.638H716.686V397.402H701.278ZM702.556 411.046V412.99H715.732V411.046H702.556ZM704.266 401.884V403.774H713.716V401.884H704.266ZM709.45 399.922V408.364C709.45 408.562 709.378 408.616 709.144 408.616C708.91 408.634 708.208 408.634 707.542 408.598C707.812 409.12 708.118 409.966 708.226 410.524C709.342 410.524 710.134 410.488 710.746 410.164C711.376 409.858 711.52 409.336 711.52 408.382V399.922H709.45ZM709.594 402.424C708.208 404.656 705.868 406.582 703.816 407.644C704.284 408.04 704.896 408.706 705.166 409.12C707.308 407.986 709.756 405.988 711.34 403.666L709.594 402.424ZM719.476 397.42V413.566H721.51V399.346H724.318V397.42H719.476ZM723.868 397.42V398.068C723.544 399.22 722.842 401.56 722.248 403.108C723.472 404.35 723.814 405.502 723.814 406.348C723.814 406.852 723.706 407.212 723.436 407.374C723.274 407.482 723.076 407.518 722.86 407.518C722.626 407.536 722.32 407.518 721.96 407.5C722.302 408.058 722.482 408.94 722.5 409.498C722.968 409.516 723.436 409.498 723.832 409.462C724.246 409.39 724.642 409.264 724.948 409.048C725.596 408.598 725.866 407.806 725.866 406.6C725.866 405.538 725.614 404.26 724.318 402.856C724.912 401.506 725.596 399.742 726.136 398.248L724.588 397.348L724.264 397.42H723.868ZM728.782 396.79C728.746 402.694 728.962 408.688 723.976 411.964C724.588 412.378 725.254 413.062 725.596 413.62C730.888 409.912 730.96 403.216 731.014 396.79H728.782ZM730.87 401.884L728.908 402.064C729.214 404.206 729.862 410.524 734.092 413.656C734.434 413.08 735.046 412.432 735.676 412C731.626 409.192 731.068 403.702 730.87 401.884Z" fill="#111111"/>
<rect x="593" y="361" width="178" height="88" stroke="#E4E4E4" stroke-width="2"/>
</svg>
